{"accessors":[{"bufferView":0,"componentType":5123,"count":900,"max":[215],"min":[0],"type":"SCALAR"},{"bufferView":1,"componentType":5126,"count":216,"max":[0.5,0.4999995231628418,0.4999999403953552],"min":[-0.5,-0.5000002384185791,-0.4999999403953552],"type":"VEC3"},{"bufferView":2,"componentType":5126,"count":216,"max":[1.0,0.9999980926513672,0.9999980330467224],"min":[-1.0,-0.9999980926513672,-0.9999980330467224],"type":"VEC3"},{"bufferView":3,"componentType":5126,"count":216,"max":[0.9559803009033203,0.9995764493942261],"min":[0.04909965395927429,0.030230700969696045],"type":"VEC2"}],"asset":{"copyright":null,"generator":"Verge3D for Maya","version":"2.0"},"bufferViews":[{"buffer":0,"byteLength":1800,"byteOffset":0,"target":34963},{"buffer":0,"byteLength":2592,"byteOffset":1800,"target":34962},{"buffer":0,"byteLength":2592,"byteOffset":4392,"target":34962},{"buffer":0,"byteLength":1728,"byteOffset":6984,"target":34962}],"buffers":[{"byteLength":8712,"uri":"macchiato grosso.bin"}],"cameras":[{"extensions":{"S8S_v3d_camera":{"controls":"ORBIT","enablePan":true,"moveSpeed":1.0,"orbitMaxDistance":1000.0,"orbitMaxPolarAngle":3.141592653589793,"orbitMaxZoom":100.0,"orbitMinDistance":0.0,"orbitMinPolarAngle":0.0,"orbitMinZoom":0.009999999776482582,"orbitTarget":[-2.0434533562494988,3.645628175567871,3.074614510811582],"rotateSpeed":1.0,"viewportFitInitialAspect":1.5,"viewportFitType":"HORIZONTAL"}},"name":"perspShape","perspective":{"aspectRatio":1.5,"yfov":0.6605947096585074,"zfar":10000.0,"znear":0.1},"type":"perspective"}],"extensions":{"S8S_v3d_lights":{"lights":[]}},"extensionsUsed":["S8S_v3d_texture","S8S_v3d_materials","S8S_v3d_lights","S8S_v3d_camera","S8S_v3d_mesh","S8S_v3d_node","S8S_v3d_scene"],"images":[{"mimeType":"image/jpeg","uri":"GROSSO.jpg"}],"materials":[{"extensions":{"S8S_v3d_materials":{"gtaoVisible":true,"nodeGraph":{"edges":[{"fromNode":1,"fromOutput":0,"toInput":0,"toNode":0},{"fromNode":2,"fromOutput":1,"toInput":1,"toNode":1},{"fromNode":3,"fromOutput":0,"toInput":0,"toNode":2}],"nodes":[{"inputs":[[0.0,0.0,0.0,1],[0,0,0,0],[0,0,0]],"is_active_output":true,"name":"standardSurface2SG","outputs":[],"type":"SHADING_ENGINE_MY"},{"inputs":[1.0,[0.0,0.0,0.0],0.0,0.26623377203941345,1.0,[1.0,1.0,1.0],0.4935064911842346,0.0,[1.0,1.0,1.0],0.0,[0.0,0.0,0.0],0.0,0.0,[1.0,1.0,1.0],[1.0,1.0,1.0],0.0,[1.0,1.0,1.0],0.10000000149011612,0.0,[1.0,1.0,1.0],0.30000001192092896,0.0,[1.0,1.0,1.0],[1.0,1.0,1.0],[1.0,1.0,1.0],[0.0,0.0,0.0],1.5],"name":"standardSurface2","outputs":[[0.0,0.0,0.0,0],[0.0,0.0,0.0]],"thinWalled":false,"type":"STANDARD_SURFACE_AR"},{"fileHasAlpha":false,"inputs":[[0.0,0.0]],"name":"file1","outputs":[1.0,[0.0,0.0,0.0],[4772.0,1853.0],[0.0,0.0,0.0]],"texture":0,"type":"FILE_MY"},{"inputs":[[0.0,0.0],[1.0,1.0],0.0],"name":"place2dTexture1","outputs":[[0.0,0.0]],"type":"PLACE_2D_TEXTURE_MY","uvIndex":0}]},"profile":"maya"}},"name":"standardSurface2"},{"extensions":{"S8S_v3d_materials":{"nodeGraph":{"edges":[],"nodes":[{"inputs":[[1.0,1.0,1.0],1.0],"is_active_output":true,"name":"aiSkyDomeLightShape1","outputs":[],"type":"SKYDOME_LIGHT_AR"}]},"profile":"maya"}},"name":"Verge3D_Environment"}],"meshes":[{"extensions":{"S8S_v3d_mesh":{}},"name":"pCubeShape1","primitives":[{"attributes":{"NORMAL":2,"POSITION":1,"TEXCOORD_0":3},"indices":0,"material":0,"mode":4}]}],"nodes":[{"extensions":{"S8S_v3d_node":{"frustumCulling":true,"hidden":false,"hidpiCompositing":false,"renderOrder":0,"useCastShadows":true,"useShadows":true}},"mesh":0,"name":"pCube1","rotation":[0.0,0.0,0.0,1.0],"scale":[29.0,3.7,3.7],"translation":[0.0,0.0,0.0]},{"extensions":{"S8S_v3d_node":{"groupNames":["defaultLightSet"],"hidden":false,"hidpiCompositing":false}},"name":"aiSkyDomeLight1","rotation":[0.0,0.0,0.0,1.0],"scale":[1.0,1.0,1.0],"translation":[0.0,0.0,0.0]},{"camera":0,"extensions":{"S8S_v3d_node":{"hidden":true,"hidpiCompositing":false}},"name":"persp","rotation":[-0.033672021273378316,-0.19925019915675815,-0.00685065015411169,0.9793460173563904],"scale":[1.0,1.0,1.0],"translation":[-15.530793848713023,6.02205818682722,34.84879751966428]}],"samplers":[{}],"scene":0,"scenes":[{"extensions":{"S8S_v3d_scene":{"aaMethod":"AUTO","iblEnvironmentMode":"PMREM","physicallyCorrectLights":true,"pmremMaxTileSize":256,"shadowMap":{"esmDistanceScale":2.5,"renderReverseSided":false,"renderSingleSided":true,"type":"PCFPOISSON"},"unitsScaleFactor":1.0,"useHDR":false,"useOIT":false,"worldMaterial":1}},"extras":{"animFrameRate":24.0,"coordSystem":"Y_UP_RIGHT"},"name":"Scene","nodes":[0,1,2]}],"textures":[{"extensions":{"S8S_v3d_texture":{"colorSpace":"srgb"}},"name":"file1","sampler":0,"source":0}]}